<mxfile host="app.diagrams.net" modified="2024-01-12T02:51:01.117Z" agent="Mozilla/5.0 (Macintosh; Intel Mac OS X 10_15_7) AppleWebKit/537.36 (KHTML, like Gecko) Chrome/120.0.0.0 Safari/537.36" etag="FX1zx4W_CVEeFG3FLq6w" version="22.1.17" type="github">
  <diagram id="07fea595-8f29-1299-0266-81d95cde20df" name="Page-1">
    <mxGraphModel dx="-904" dy="691" grid="1" gridSize="10" guides="1" tooltips="1" connect="1" arrows="1" fold="1" page="1" pageScale="1" pageWidth="1169" pageHeight="827" background="none" math="0" shadow="0">
      <root>
        <mxCell id="0" />
        <mxCell id="1" parent="0" />
        <mxCell id="727" value="" style="edgeStyle=none;html=1;fontColor=#000000;strokeWidth=3;strokeColor=#000000;" parent="1" edge="1">
          <mxGeometry width="100" height="100" relative="1" as="geometry">
            <mxPoint x="2447.5" y="1500" as="sourcePoint" />
            <mxPoint x="2447.5" y="1020" as="targetPoint" />
          </mxGeometry>
        </mxCell>
        <mxCell id="734" value="" style="edgeStyle=none;html=1;fontColor=#000000;strokeWidth=3;strokeColor=#000000;" parent="1" edge="1">
          <mxGeometry width="100" height="100" relative="1" as="geometry">
            <mxPoint x="2447.5" y="1500" as="sourcePoint" />
            <mxPoint x="3367.5" y="1500" as="targetPoint" />
          </mxGeometry>
        </mxCell>
        <mxCell id="735" value="时间" style="text;spacingTop=-5;html=1;fontSize=18;fontStyle=0;points=[];strokeColor=none;" parent="1" vertex="1">
          <mxGeometry x="3307.5" y="1512" width="80" height="20" as="geometry" />
        </mxCell>
        <mxCell id="736" value="01" style="text;spacingTop=-5;align=center;verticalAlign=middle;fontStyle=0;html=1;fontSize=18;points=[];strokeColor=none;" parent="1" vertex="1">
          <mxGeometry x="2507.5" y="1502" width="120" height="30" as="geometry" />
        </mxCell>
        <mxCell id="737" value="02" style="text;spacingTop=-5;align=center;verticalAlign=middle;fontStyle=0;html=1;fontSize=18;points=[];strokeColor=none;" parent="1" vertex="1">
          <mxGeometry x="2707.5" y="1502" width="120" height="30" as="geometry" />
        </mxCell>
        <mxCell id="738" value="03" style="text;spacingTop=-5;align=center;verticalAlign=middle;fontStyle=0;html=1;fontSize=18;points=[];strokeColor=none;" parent="1" vertex="1">
          <mxGeometry x="2907.5" y="1502" width="120" height="30" as="geometry" />
        </mxCell>
        <mxCell id="739" value="" style="whiteSpace=wrap;fillColor=#12AAB5;gradientColor=none;gradientDirection=east;strokeColor=none;html=1;fontColor=#23445d;" parent="1" vertex="1">
          <mxGeometry x="3280" y="990" width="35.000000000000114" height="30.000000000000227" as="geometry" />
        </mxCell>
        <mxCell id="740" value="" style="whiteSpace=wrap;fillColor=#F08705;gradientColor=none;gradientDirection=east;strokeColor=none;html=1;fontColor=#23445d;" parent="1" vertex="1">
          <mxGeometry x="3279.9999999999995" y="949.9999999999999" width="35.000000000000114" height="30.000000000000227" as="geometry" />
        </mxCell>
        <mxCell id="741" value="" style="whiteSpace=wrap;fillColor=#E85642;gradientColor=none;gradientDirection=east;strokeColor=none;html=1;fontColor=#23445d;" parent="1" vertex="1">
          <mxGeometry x="3280" y="910" width="35.000000000000114" height="30.000000000000114" as="geometry" />
        </mxCell>
        <mxCell id="742" value="总量" style="text;spacingTop=-5;html=1;points=[];fontSize=15;" parent="1" vertex="1">
          <mxGeometry x="3320" y="915.0000000000001" width="80" height="20" as="geometry" />
        </mxCell>
        <mxCell id="743" value="业务方sns" style="text;spacingTop=-5;html=1;points=[];fontSize=15;" parent="1" vertex="1">
          <mxGeometry x="3320" y="955.0000000000001" width="80" height="20" as="geometry" />
        </mxCell>
        <mxCell id="745" value="RPS" style="text;spacingTop=-5;html=1;fontSize=18;fontStyle=0;points=[]" parent="1" vertex="1">
          <mxGeometry x="2380" y="1055.5" width="80" height="20" as="geometry" />
        </mxCell>
        <mxCell id="746" value="1k" style="text;spacingTop=-5;align=center;verticalAlign=middle;fontStyle=0;html=1;fontSize=18;points=[]" parent="1" vertex="1">
          <mxGeometry x="2415.5" y="1370.0000000000002" width="30" height="129.99999999999977" as="geometry" />
        </mxCell>
        <mxCell id="747" value="2k" style="text;spacingTop=-5;align=center;verticalAlign=middle;fontStyle=0;html=1;fontSize=18;points=[]" parent="1" vertex="1">
          <mxGeometry x="2415.5" y="1240" width="30" height="129.99999999999977" as="geometry" />
        </mxCell>
        <mxCell id="748" value="3k" style="text;spacingTop=-5;align=center;verticalAlign=middle;fontStyle=0;html=1;fontSize=18;points=[]" parent="1" vertex="1">
          <mxGeometry x="2415.5" y="1110" width="30" height="129.99999999999977" as="geometry" />
        </mxCell>
        <mxCell id="749" value="&lt;font style=&quot;font-size: 30px;&quot;&gt;Diagram title&lt;/font&gt;" style="text;spacingTop=-5;align=center;verticalAlign=middle;fontSize=30;fontStyle=1;html=1;points=[]" parent="1" vertex="1">
          <mxGeometry x="2447.5" y="760" width="810" height="45" as="geometry" />
        </mxCell>
        <mxCell id="752" value="04" style="text;spacingTop=-5;align=center;verticalAlign=middle;fontStyle=0;html=1;fontSize=18;points=[];strokeColor=none;" parent="1" vertex="1">
          <mxGeometry x="3107.5" y="1502" width="120" height="30" as="geometry" />
        </mxCell>
        <mxCell id="nnOG0j-LqgIhaCVIdNkj-754" value="" style="endArrow=none;html=1;rounded=0;curved=1;fillColor=#f8cecc;strokeColor=#b85450;" edge="1" parent="1">
          <mxGeometry width="50" height="50" relative="1" as="geometry">
            <mxPoint x="2490" y="1190" as="sourcePoint" />
            <mxPoint x="3200" y="1010" as="targetPoint" />
            <Array as="points">
              <mxPoint x="2890" y="1160" />
            </Array>
          </mxGeometry>
        </mxCell>
        <mxCell id="nnOG0j-LqgIhaCVIdNkj-756" value="业务方ips" style="text;spacingTop=-5;html=1;points=[];fontSize=15;" vertex="1" parent="1">
          <mxGeometry x="3320" y="990" width="80" height="45" as="geometry" />
        </mxCell>
        <mxCell id="nnOG0j-LqgIhaCVIdNkj-757" value="" style="endArrow=none;html=1;rounded=0;curved=1;fillColor=#b0e3e6;strokeColor=#0e8088;" edge="1" parent="1">
          <mxGeometry width="50" height="50" relative="1" as="geometry">
            <mxPoint x="2482.5" y="1310" as="sourcePoint" />
            <mxPoint x="3222.5" y="1190" as="targetPoint" />
            <Array as="points">
              <mxPoint x="2882.5" y="1280" />
            </Array>
          </mxGeometry>
        </mxCell>
        <mxCell id="nnOG0j-LqgIhaCVIdNkj-758" value="" style="endArrow=none;html=1;rounded=0;curved=1;fillColor=#ffe6cc;strokeColor=#d79b00;" edge="1" parent="1">
          <mxGeometry width="50" height="50" relative="1" as="geometry">
            <mxPoint x="2490" y="1430" as="sourcePoint" />
            <mxPoint x="3230" y="1310" as="targetPoint" />
            <Array as="points">
              <mxPoint x="2890" y="1400" />
            </Array>
          </mxGeometry>
        </mxCell>
      </root>
    </mxGraphModel>
  </diagram>
</mxfile>
